<svg xmlns="http://www.w3.org/2000/svg" xmlns:xlink="http://www.w3.org/1999/xlink" width="475.717" height="377.444" viewBox="0 0 475.717 377.444"><defs><filter id="a" x="0" y="0" width="475.717" height="377.444" filterUnits="userSpaceOnUse"><feOffset dy="20" input="SourceAlpha"/><feGaussianBlur stdDeviation="49.5" result="b"/><feFlood flood-opacity="0.051"/><feComposite operator="in" in2="b"/><feComposite in="SourceGraphic"/></filter></defs><g transform="matrix(1, 0, 0, 1, 0, 0)" filter="url(#a)"><path d="M222.334,536.306a37.178,37.178,0,0,1,60.01-29.341,40.229,40.229,0,0,1,68.769,14.093,30,30,0,1,1,19.933,52.426c-.466,0-.93-.012-1.391-.033-.476.021-.954.033-1.436.033H255.6a32.614,32.614,0,0,1-32.46-29.458A37.324,37.324,0,0,1,222.334,536.306Z" transform="translate(-73.83 -364.54)" fill="#fff"/></g></svg>