<svg xmlns="http://www.w3.org/2000/svg" width="20.443" height="22.028" viewBox="0 0 20.443 22.028"><g transform="translate(-15.046 -13.802)"><path d="M8.758,22.027H8.707c-.96-.032-.95-.544-.937-1.136,0-.133.006-.27,0-.408,0-.025.049-.285.056-.306.053-.194.255-1.06.331-1.535a1.264,1.264,0,0,0-.1-.98A1.041,1.041,0,0,0,7.3,17.33a2.79,2.79,0,0,1-2.308-1.85c-.238-.747-.559-1.066-1.073-1.066a3.6,3.6,0,0,0-.848.152l-.211.053a4.13,4.13,0,0,0-.713.28,2.76,2.76,0,0,1-1.079.337.99.99,0,0,1-.807-.431c-.514-.657-.176-1.405.151-2.129.091-.2.177-.392.243-.578.9-2.524,2.4-3.783,4.576-3.848A1.861,1.861,0,0,0,6.8,7.376a18.463,18.463,0,0,1,5.416-4.9A20.571,20.571,0,0,1,19.073,0l.11,0a1.268,1.268,0,0,1,.943.3,1.5,1.5,0,0,1,.315,1.11,20.46,20.46,0,0,1-1.1,6.437,12.866,12.866,0,0,1-4.071,5.92l-.066.052c-.615.487-1.2.946-1.127,1.659a6.384,6.384,0,0,1-1.969,4.487A5.518,5.518,0,0,1,8.758,22.027ZM13.821,5.368h0a1.883,1.883,0,0,0-1.346.575,2.155,2.155,0,0,0-.607,1.537A2.045,2.045,0,0,0,13.756,9.5l.078,0a1.869,1.869,0,0,0,1.341-.588,2.135,2.135,0,0,0,.6-1.538A2.048,2.048,0,0,0,13.89,5.37h-.069Z" transform="translate(15.048 13.802)" fill="#0b7bfb"/><path d="M4.8,3.846C4.3,4.9,2.594,5.2,1.255,5.083c-.633-.056-.95-.2-1.109-.895A3.578,3.578,0,0,1,1.182.335C1.5.1,1.878-.14,2.251.1c.468.3.144.638-.046.98a2.291,2.291,0,0,0-.267.894c-.076.872.4,1.119,1.162.914a1.954,1.954,0,0,0,.811-.416c.93-.875.955-.164.973.546a2.4,2.4,0,0,1-.082.828" transform="translate(16.781 29.791)" fill="#0b7bfb"/></g></svg>